<?xml version="1.0" encoding="UTF-8" standalone="no"?>
<!-- Created with Inkscape (http://www.inkscape.org/) -->

<svg
   xmlns:dc="http://purl.org/dc/elements/1.1/"
   xmlns:cc="http://creativecommons.org/ns#"
   xmlns:rdf="http://www.w3.org/1999/02/22-rdf-syntax-ns#"
   xmlns:svg="http://www.w3.org/2000/svg"
   xmlns="http://www.w3.org/2000/svg"
   version="1.1"
   width="48"
   height="48"
   id="svg2">
  <defs
     id="defs4" />
  <metadata
     id="metadata7">
    <rdf:RDF>
      <cc:Work
         rdf:about="">
        <dc:format>image/svg+xml</dc:format>
        <dc:type
           rdf:resource="http://purl.org/dc/dcmitype/StillImage" />
        <dc:title></dc:title>
      </cc:Work>
    </rdf:RDF>
  </metadata>
  <g
     transform="translate(-268.14286,-325.50503)"
     id="layer1">
    <g
       id="g3134">
      <g
         transform="translate(268.14286,325.50503)"
         id="g3071">
        <path
           d="M 0,0 H 48 V 48 H 0 z"
           id="path3061"
           style="fill:none" />
        <path
           d="M 40,4 H 8 C 5.79,4 4,5.79 4,8 v 32 c 0,2.21 1.79,4 4,4 h 32 c 2.21,0 4,-1.79 4,-4 V 8 C 44,5.79 42.21,4 40,4 z M 16,40 H 8 v -8 h 8 v 8 z M 16,28 H 8 v -8 h 8 v 8 z M 16,16 H 8 V 8 h 8 v 8 z m 12,24 h -8 v -8 h 8 v 8 z m 0,-12 h -8 v -8 h 8 v 8 z M 28,16 H 20 V 8 h 8 v 8 z m 12,24 h -8 v -8 h 8 v 8 z m 0,-12 h -8 v -8 h 8 v 8 z M 40,16 H 32 V 8 h 8 v 8 z"
           id="path3063"
           style="fill:#0000ff" />
      </g>
      <g
         transform="matrix(0.6,0,0,0.6,277.74286,335.10503)"
         id="g3130">
        <path
           d="M 6,34.5 V 42 h 7.5 L 35.63,19.87 28.13,12.37 6,34.5 z M 41.41,14.09 c 0.78,-0.78 0.78,-2.05 0,-2.83 L 36.74,6.59 c -0.78,-0.78 -2.05,-0.78 -2.83,0 l -3.66,3.66 7.5,7.5 3.66,-3.66 z"
           id="path3120"
           style="fill:#00ff00" />
        <path
           d="M 0,0 H 48 V 48 H 0 z"
           id="path3122"
           style="fill:none" />
      </g>
    </g>
  </g>
</svg>
