<?xml version="1.0" encoding="UTF-8" standalone="no"?>
<!-- Created with Inkscape (http://www.inkscape.org/) -->

<svg
   xmlns:dc="http://purl.org/dc/elements/1.1/"
   xmlns:cc="http://creativecommons.org/ns#"
   xmlns:rdf="http://www.w3.org/1999/02/22-rdf-syntax-ns#"
   xmlns:svg="http://www.w3.org/2000/svg"
   xmlns="http://www.w3.org/2000/svg"
   version="1.1"
   width="24"
   height="24"
   id="svg2">
  <defs
     id="defs4" />
  <metadata
     id="metadata7">
    <rdf:RDF>
      <cc:Work
         rdf:about="">
        <dc:format>image/svg+xml</dc:format>
        <dc:type
           rdf:resource="http://purl.org/dc/dcmitype/StillImage" />
        <dc:title></dc:title>
      </cc:Work>
    </rdf:RDF>
  </metadata>
  <g
     transform="translate(-27.464285,-105.71933)"
     id="layer1">
    <g
       id="g3080">
      <g
         transform="matrix(1.2857143,0,0,1.2857143,-29.87245,50.855708)"
         id="g3215"
         style="stroke:#000000;stroke-width:0.77777779;stroke-opacity:1">
        <circle
           cx="0"
           cy="0"
           r="7"
           transform="translate(53.928571,52.005039)"
           id="circle3045-9"
           style="fill:none;stroke:#000000;stroke-width:0.77777779;stroke-opacity:1" />
        <path
           d="m 53.928571,59.005039 q -7,-7 0,-14"
           id="path3065-2"
           style="fill:none;stroke:#000000;stroke-width:0.77777779;stroke-opacity:1" />
        <path
           d="m 53.928571,59.005039 q 7,-7 0,-14"
           id="path3067-2"
           style="fill:none;stroke:#000000;stroke-width:0.77777779;stroke-opacity:1" />
        <path
           d="m 46.928571,52.005039 14,0"
           id="path3069-8"
           style="fill:none;stroke:#000000;stroke-width:0.77777779;stroke-opacity:1" />
        <path
           d="m 49.012011,46.741239 c 0,0 2.441562,1.790365 4.91656,1.7638 2.474999,-0.02656 4.853426,-1.511262 4.853426,-1.511262"
           id="path3071-5"
           style="fill:none;stroke:#000000;stroke-width:0.77777779;stroke-opacity:1" />
        <path
           d="m 48.980444,57.089732 c 0,0 2.441562,-1.790366 4.91656,-1.763801 2.474999,0.02656 4.853426,1.511263 4.853426,1.511263"
           id="path3071-2-9"
           style="fill:none;stroke:#000000;stroke-width:0.77777779;stroke-opacity:1" />
      </g>
      <path
         d="m 27.464285,105.71933 24,0 0,24 -24,0 z"
         id="rect4265-22"
         style="color:#000000;fill:none;stroke:none;stroke-width:2;marker:none;visibility:visible;display:inline;overflow:visible;enable-background:accumulate" />
    </g>
  </g>
</svg>
